<svg xmlns="http://www.w3.org/2000/svg" width="1200" height="1500" viewBox="0 0 400 500">
  <defs>
    <linearGradient id="sky" x1="0" x2="0" y1="0" y2="1">
      <stop offset="0" stop-color="#b9bfc9"/>
      <stop offset="1" stop-color="#45586c"/>
    </linearGradient>
  </defs>
  <rect width="400" height="500" fill="url(#sky)"/>
  <rect x="0" y="444" width="400" height="56" fill="#566372" opacity="0.92"/>
  <rect x="0" y="78" width="400" height="36" fill="#2b3842" opacity="0.95"/>
  <rect x="120" y="103" width="160" height="116" rx="4" fill="#11191b" opacity="0.96"/>
  <rect x="128" y="112" width="145" height="88" rx="3" fill="#24383a"/>
  <g fill="#ffd37a">
    <rect x="136" y="119" width="34" height="8" rx="2"/>
    <rect x="178" y="119" width="62" height="8" rx="2"/>
    <rect x="145" y="146" width="34" height="8" rx="2"/>
    <rect x="186" y="146" width="72" height="8" rx="2"/>
    <rect x="226" y="166" width="44" height="8" rx="2" fill="#dd5757"/>
  </g>

  <rect x="0" y="342" width="400" height="174" fill="#58646c"/>
  <rect x="0" y="342" width="400" height="10" fill="#b8b0aa" opacity="0.95"/>
  <g opacity="0.95">
    <rect x="0" y="354" width="400" height="3" fill="#e2d7aa"/>
    <rect x="0" y="378" width="400" height="3" fill="#e2d7aa"/>
  </g>

  <g opacity="0.9">
    <rect x="277" y="360" width="74" height="48" rx="4" fill="#efe6d0"/>
    <rect x="285" y="352" width="50" height="8" rx="2" fill="#6a5041"/>
  </g>
  <ellipse cx="289" cy="390" rx="78" ry="25" fill="#211710" opacity="0.46"/>

  <g stroke="#cfdbe7" stroke-width="2" opacity="0.9">
    <line x1="20" y1="404" x2="60" y2="292"/>
    <line x1="52" y1="404" x2="105" y2="292"/>
    <line x1="105" y1="404" x2="160" y2="292"/>
    <line x1="202" y1="404" x2="206" y2="292"/>
    <line x1="245" y1="404" x2="254" y2="292"/>
    <line x1="341" y1="404" x2="332" y2="292"/>
  </g>
</svg>
