<svg xmlns="http://www.w3.org/2000/svg" width="1200" height="1500" viewBox="0 0 400 500">
  <defs>
    <linearGradient id="bg" x1="0" x2="1" y1="0" y2="1">
      <stop offset="0" stop-color="#e76c6c"/>
      <stop offset="1" stop-color="#7b3351"/>
    </linearGradient>
  </defs>
  <rect width="400" height="500" fill="url(#bg)"/>
  <rect x="0" y="250" width="400" height="250" fill="#253039" opacity="0.95"/>

  <g opacity="0.34">
    <rect x="20" y="270" width="68" height="40" rx="5" fill="#495562"/>
    <rect x="108" y="270" width="68" height="40" rx="5" fill="#495562"/>
    <rect x="198" y="270" width="74" height="40" rx="5" fill="#495562"/>
    <rect x="296" y="270" width="76" height="40" rx="5" fill="#495562"/>
  </g>

  <rect x="30" y="340" width="340" height="150" rx="8" fill="#1a2027" opacity="0.95"/>
  <ellipse cx="202" cy="284" rx="84" ry="85" fill="#e0a282"/>
  <path d="M116 280c0-88 54-112 106-104 40 7 75 47 78 111-56-30-112-33-184-7Z" fill="#361f1e" opacity="0.95"/>

  <path d="M160 260q14-14 30 2M210 258q14-18 28 2" stroke="#21171a" stroke-width="4" fill="none" stroke-linecap="round"/>
  <ellipse cx="204" cy="314" rx="24" ry="12" fill="#8a492b"/>

  <g fill="#dfb28d" opacity="0.92">
    <ellipse cx="78" cy="380" rx="32" ry="50"/>
    <ellipse cx="318" cy="380" rx="32" ry="50"/>
  </g>
  <g fill="#fcdec9" opacity="0.95">
    <path d="M92 384c8-10 30-8 30 7-5 16-25 15-30 11Z"/>
    <path d="M306 382c11-7 26-3 24 9-7 13-24 12-29 7Z"/>
  </g>
</svg>
